<svg width="130" height="100" viewBox="0 0 130 100" fill="none" xmlns="http://www.w3.org/2000/svg">
<g clip-path="url(#clip0_3008_802)">
<path d="M81.4826 28.9098C83.1457 28.9098 84.494 27.5672 84.494 25.9111C84.494 24.2549 83.1457 22.9124 81.4826 22.9124C79.8194 22.9124 78.4712 24.2549 78.4712 25.9111C78.4712 27.5672 79.8194 28.9098 81.4826 28.9098Z" fill="#ECDA24"/>
<path fill-rule="evenodd" clip-rule="evenodd" d="M39.8979 19.3019V32.3123C39.8979 42.8951 48.5967 51.5544 59.2288 51.5544H90.0494L78.7082 39.0649H59.6193C56.8546 39.0649 54.6123 36.8331 54.6123 34.0805V18.186C54.6123 15.4334 56.8546 13.2017 59.6193 13.2017H78.7082L90.047 0.0598145H59.2264C48.5943 0.0598145 39.8955 8.71911 39.8955 19.3019H39.8979Z" fill="#022929" stroke="#231F20" stroke-width="0.5" stroke-miterlimit="2.61"/>
<path fill-rule="evenodd" clip-rule="evenodd" d="M18.0615 78.6934C18.0615 79.3625 17.5176 79.9025 16.8445 79.9025C16.1713 79.9025 15.6274 79.3601 15.6274 78.6934C15.6274 78.0268 16.1713 77.4844 16.8445 77.4844C17.5176 77.4844 18.0615 78.0268 18.0615 78.6934Z" fill="#022929" stroke="#231F20" stroke-width="0.5" stroke-miterlimit="2.61"/>
<path fill-rule="evenodd" clip-rule="evenodd" d="M70.0263 80.574L59.4182 68.333H53.8242V88.9705H59.4613V76.6458L69.9784 88.8678L70.067 88.9705H75.6921V68.333H70.0263V80.574Z" fill="#022929" stroke="#231F20" stroke-width="0.5" stroke-miterlimit="2.61"/>
<path fill-rule="evenodd" clip-rule="evenodd" d="M123.247 68.333L117.672 76.6148L112.04 68.333H105.425L114.84 81.709V88.9705H120.626V81.7664L129.885 68.333H123.247Z" fill="#022929" stroke="#231F20" stroke-width="0.5" stroke-miterlimit="2.61"/>
<path fill-rule="evenodd" clip-rule="evenodd" d="M0.0600586 76.0269V81.2788C0.0600586 85.5488 3.56975 89.0445 7.86284 89.0445H20.3013L15.7231 84.0028H8.01856C6.90216 84.0028 5.99659 83.102 5.99659 81.9909V75.5753C5.99659 74.4642 6.90216 73.5634 8.01856 73.5634H15.7231L20.3013 68.2612H7.86284C3.57215 68.2612 0.0600586 71.757 0.0600586 76.0269Z" fill="#022929" stroke="#231F20" stroke-width="0.5" stroke-miterlimit="2.61"/>
<path fill-rule="evenodd" clip-rule="evenodd" d="M81.5615 76.0269V81.2788C81.5615 85.5488 85.0712 89.0445 89.3643 89.0445H101.803L97.2246 84.0028H89.52C88.4036 84.0028 87.4981 83.102 87.4981 81.9909V75.5753C87.4981 74.4642 88.4036 73.5634 89.52 73.5634H97.2246L101.803 68.2612H89.3643C85.0736 68.2612 81.5615 71.757 81.5615 76.0269Z" fill="#022929" stroke="#231F20" stroke-width="0.5" stroke-miterlimit="2.61"/>
<path fill-rule="evenodd" clip-rule="evenodd" d="M38.4463 77.8119H31.7215V73.4918H38.4463C40.5617 73.4918 41.3115 74.0055 41.3115 75.4535C41.3115 77.0401 40.3748 77.8119 38.4463 77.8119ZM42.8472 82.1917C45.6286 81.138 47.0971 78.8202 47.0971 75.4583C47.0971 70.5289 44.5577 68.333 38.8631 68.333H26.0845V88.9705H31.7215V82.8536H36.6591L41.4337 88.9705H48.283L42.8472 82.1917Z" fill="#022929" stroke="#231F20" stroke-width="0.5" stroke-miterlimit="2.61"/>
<path fill-rule="evenodd" clip-rule="evenodd" d="M7.30685 97.5296C7.30685 97.0947 7.09123 96.9657 6.72709 96.9657H6.03473V98.1676H6.72709C7.09363 98.1676 7.30685 97.9645 7.30685 97.5296ZM8.00639 97.5344C8.00639 98.3922 7.57037 98.7721 6.74386 98.7721H6.03473V99.9143H5.34717V96.3206H6.74386C7.60391 96.3206 8.00639 96.6312 8.00639 97.532V97.5344Z" fill="#ECDA24"/>
<path fill-rule="evenodd" clip-rule="evenodd" d="M11.9833 99.2546V99.9141H9.47266V96.3228H11.9738V96.9822H10.1674V97.8281H11.624V98.3801H10.1674V99.2546H11.9833Z" fill="#ECDA24"/>
<path fill-rule="evenodd" clip-rule="evenodd" d="M15.742 98.5044V97.7278C15.742 97.1424 15.397 96.8796 14.8388 96.8796C14.2806 96.8796 13.9476 97.1424 13.9476 97.7278V98.5044C13.9476 99.0778 14.2926 99.3574 14.8388 99.3574C15.385 99.3574 15.742 99.0778 15.742 98.5044ZM13.248 98.4829V97.7493C13.248 96.7959 13.7751 96.2368 14.8388 96.2368C15.9025 96.2368 16.4415 96.7936 16.4415 97.7493V98.4829C16.4415 99.4434 15.9097 100 14.8388 100C13.7679 100 13.248 99.4434 13.248 98.4829Z" fill="#ECDA24"/>
<path fill-rule="evenodd" clip-rule="evenodd" d="M19.9777 97.5296C19.9777 97.0947 19.7621 96.9657 19.398 96.9657H18.7056V98.1676H19.398C19.7645 98.1676 19.9777 97.9645 19.9777 97.5296ZM20.6773 97.5344C20.6773 98.3922 20.2413 98.7721 19.4148 98.7721H18.7056V99.9143H18.0181V96.3206H19.4148C20.2748 96.3206 20.6773 96.6312 20.6773 97.532V97.5344Z" fill="#ECDA24"/>
<path fill-rule="evenodd" clip-rule="evenodd" d="M24.4674 99.2665V99.9141H22.146V96.3228H22.8384V99.2665H24.4674Z" fill="#ECDA24"/>
<path fill-rule="evenodd" clip-rule="evenodd" d="M28.4082 99.2546V99.9141H25.8975V96.3228H28.3986V96.9822H26.5922V97.8281H28.0488V98.3801H26.5922V99.2546H28.4082Z" fill="#ECDA24"/>
<path fill-rule="evenodd" clip-rule="evenodd" d="M30.5259 98.3776C30.5259 97.9977 30.7247 97.8137 31.0697 97.8137C31.4147 97.8137 31.6399 97.9953 31.6399 98.3776C31.6399 98.7599 31.4362 98.9726 31.0697 98.9726C30.7032 98.9726 30.5259 98.7695 30.5259 98.3776Z" fill="#ECDA24"/>
<path d="M34.6489 96.3228H33.9565V99.9165H34.6489V96.3228Z" fill="#ECDA24"/>
<path fill-rule="evenodd" clip-rule="evenodd" d="M39.1626 96.3228V99.9141H38.5014L36.9993 97.5175L37.016 99.9141H36.3716V96.3228H37.0376L38.5325 98.7194L38.5157 96.3228H39.1626Z" fill="#ECDA24"/>
<path fill-rule="evenodd" clip-rule="evenodd" d="M43.8387 96.3228L42.6289 99.926H41.7736L40.5806 96.3228H41.316L42.1977 99.2235L43.1008 96.3228H43.8387Z" fill="#ECDA24"/>
<path fill-rule="evenodd" clip-rule="evenodd" d="M47.7748 99.2546V99.9141H45.2642V96.3228H47.7629V96.9822H45.9565V97.8281H47.4131V98.3801H45.9565V99.2546H47.7748Z" fill="#ECDA24"/>
<path fill-rule="evenodd" clip-rule="evenodd" d="M49.0424 99.2117L49.5264 98.8365C49.73 99.1734 50.0271 99.3622 50.5589 99.3622C50.9782 99.3622 51.268 99.2236 51.268 98.944C51.268 98.7075 51.1219 98.5737 50.7578 98.4781L50.0654 98.3061C49.421 98.1245 49.1622 97.7326 49.1622 97.2452C49.1622 96.6502 49.6078 96.2368 50.511 96.2368C51.1195 96.2368 51.5962 96.4256 51.9628 96.9489L51.5052 97.3359C51.2585 97.0086 50.9614 96.87 50.5206 96.87C50.0534 96.87 49.8594 97.0038 49.8594 97.2452C49.8594 97.4865 49.9983 97.6155 50.408 97.7326L50.9662 97.8712C51.5747 98.0265 51.9604 98.2846 51.9604 98.9273C51.9604 99.6561 51.4022 100 50.5565 100C49.7108 100 49.3251 99.711 49.04 99.2117H49.0424Z" fill="#ECDA24"/>
<path fill-rule="evenodd" clip-rule="evenodd" d="M55.8651 96.9655H54.8373V99.9141H54.1449V96.9655H53.1172V96.3228H55.8651V96.9655Z" fill="#ECDA24"/>
<path fill-rule="evenodd" clip-rule="evenodd" d="M60.9608 96.3228V99.9141H60.3116L60.3284 97.582L59.3749 99.5174H58.8862L57.9518 97.5987L57.9662 99.9141H57.3218V96.3228H58.0525L59.1329 98.564L60.2302 96.3228H60.9608Z" fill="#ECDA24"/>
<path fill-rule="evenodd" clip-rule="evenodd" d="M65.187 99.2546V99.9141H62.6763V96.3228H65.1774V96.9822H63.371V97.8281H64.8276V98.3801H63.371V99.2546H65.187Z" fill="#ECDA24"/>
<path fill-rule="evenodd" clip-rule="evenodd" d="M69.499 96.3228V99.9141H68.8378L67.3381 97.5175L67.3548 99.9141H66.708V96.3228H67.3764L68.8713 98.7194L68.8545 96.3228H69.499Z" fill="#ECDA24"/>
<path fill-rule="evenodd" clip-rule="evenodd" d="M73.6985 96.9655H72.6708V99.9141H71.9784V96.9655H70.9507V96.3228H73.6985V96.9655Z" fill="#ECDA24"/>
<path fill-rule="evenodd" clip-rule="evenodd" d="M74.8173 99.2117L75.3012 98.8365C75.5049 99.1734 75.8019 99.3622 76.3338 99.3622C76.753 99.3622 77.0429 99.2236 77.0429 98.944C77.0429 98.7075 76.8968 98.5737 76.5326 98.4781L75.8379 98.3061C75.1934 98.1245 74.9347 97.7326 74.9347 97.2452C74.9347 96.6502 75.3803 96.2368 76.2835 96.2368C76.892 96.2368 77.3687 96.4256 77.7353 96.9489L77.2777 97.3359C77.0309 97.0086 76.7338 96.87 76.293 96.87C75.8259 96.87 75.6318 97.0038 75.6318 97.2452C75.6318 97.4865 75.7708 97.6155 76.1804 97.7326L76.7386 97.8712C77.3471 98.0265 77.7329 98.2846 77.7329 98.9273C77.7329 99.6561 77.1747 100 76.329 100C75.4833 100 75.0976 99.711 74.8125 99.2117H74.8173Z" fill="#ECDA24"/>
<path fill-rule="evenodd" clip-rule="evenodd" d="M79.8438 98.3776C79.8438 97.9977 80.0426 97.8137 80.3876 97.8137C80.7326 97.8137 80.9577 97.9953 80.9577 98.3776C80.9577 98.7599 80.7541 98.9726 80.3876 98.9726C80.021 98.9726 79.8438 98.7695 79.8438 98.3776Z" fill="#ECDA24"/>
<path fill-rule="evenodd" clip-rule="evenodd" d="M85.7562 96.9655H84.7308V99.9141H84.0361V96.9655H83.0107V96.3228H85.7562V96.9655Z" fill="#ECDA24"/>
<path fill-rule="evenodd" clip-rule="evenodd" d="M89.726 99.2546V99.9141H87.2153V96.3228H89.714V96.9822H87.9077V97.8281H89.3643V98.3801H87.9077V99.2546H89.726Z" fill="#ECDA24"/>
<path fill-rule="evenodd" clip-rule="evenodd" d="M92.5 100C91.4794 100 90.9883 99.4434 90.9883 98.4829V97.7493C90.9883 96.7936 91.4818 96.2368 92.5048 96.2368C93.2043 96.2368 93.7026 96.5044 93.9566 97.2117L93.3768 97.4745C93.2211 97.0564 92.9456 96.8796 92.5263 96.8796C92.0112 96.8796 91.6878 97.1257 91.6878 97.7111V98.5211C91.6878 99.0946 92.0041 99.3574 92.5215 99.3574C92.9504 99.3574 93.2211 99.1758 93.3816 98.7075L93.9733 98.9393C93.7529 99.6728 93.2905 100 92.5 100Z" fill="#ECDA24"/>
<path fill-rule="evenodd" clip-rule="evenodd" d="M98.2953 96.3228V99.9141H97.6005V98.4135H96.1176V99.9141H95.4229V96.3228H96.1176V97.7755H97.6005V96.3228H98.2953Z" fill="#ECDA24"/>
<path fill-rule="evenodd" clip-rule="evenodd" d="M102.807 96.3228V99.9141H102.145L100.646 97.5175L100.66 99.9141H100.016V96.3228H100.682L102.177 98.7194L102.16 96.3228H102.807Z" fill="#ECDA24"/>
<path fill-rule="evenodd" clip-rule="evenodd" d="M106.869 98.5044V97.7278C106.869 97.1424 106.524 96.8796 105.966 96.8796C105.408 96.8796 105.075 97.1424 105.075 97.7278V98.5044C105.075 99.0778 105.42 99.3574 105.966 99.3574C106.512 99.3574 106.869 99.0778 106.869 98.5044ZM104.375 98.4829V97.7493C104.375 96.7959 104.903 96.2368 105.966 96.2368C107.03 96.2368 107.569 96.7936 107.569 97.7493V98.4829C107.569 99.4434 107.037 100 105.966 100C104.895 100 104.375 99.4434 104.375 98.4829Z" fill="#ECDA24"/>
<path fill-rule="evenodd" clip-rule="evenodd" d="M111.467 99.2665V99.9141H109.143V96.3228H109.838V99.2665H111.467Z" fill="#ECDA24"/>
<path fill-rule="evenodd" clip-rule="evenodd" d="M115.041 98.5044V97.7278C115.041 97.1424 114.696 96.8796 114.138 96.8796C113.58 96.8796 113.245 97.1424 113.245 97.7278V98.5044C113.245 99.0778 113.589 99.3574 114.138 99.3574C114.687 99.3574 115.041 99.0778 115.041 98.5044ZM112.547 98.4829V97.7493C112.547 96.7959 113.074 96.2368 114.138 96.2368C115.202 96.2368 115.741 96.7936 115.741 97.7493V98.4829C115.741 99.4434 115.209 100 114.138 100C113.067 100 112.547 99.4434 112.547 98.4829Z" fill="#ECDA24"/>
<path fill-rule="evenodd" clip-rule="evenodd" d="M120.156 97.9907V99.6465C119.859 99.8664 119.349 100 118.721 100C117.662 100 117.173 99.4434 117.173 98.4829V97.7756C117.173 96.7936 117.667 96.2368 118.699 96.2368C119.409 96.2368 119.835 96.5307 120.139 97.0731L119.612 97.4387C119.423 97.0636 119.138 96.882 118.709 96.882C118.194 96.882 117.87 97.1281 117.87 97.7135V98.5235C117.87 99.097 118.182 99.3598 118.795 99.3598C119.128 99.3598 119.327 99.312 119.495 99.2427V98.5522H118.431V97.9954H120.156V97.9907Z" fill="#ECDA24"/>
<path fill-rule="evenodd" clip-rule="evenodd" d="M123.381 98.5855V99.9141H122.681V98.6214L121.428 96.3228H122.183L123.026 97.9786L123.848 96.3228H124.6L123.381 98.5855Z" fill="#ECDA24"/>
</g>
<defs>
<clipPath id="clip0_3008_802">
<rect width="130" height="100" fill="white"/>
</clipPath>
</defs>
</svg>
